<?xml version="1.0" encoding="UTF-8" standalone="no"?>
<!-- Uploaded to: SVG Repo, www.svgrepo.com, Generator: SVG Repo Mixer Tools -->

<svg
   width="800px"
   height="800px"
   viewBox="0 0 16 16"
   version="1.1"
   class="si-glyph si-glyph-solar-blind"
   id="svg7"
   sodipodi:docname="blinds.svg"
   inkscape:version="1.4.2 (ebf0e940d0, 2025-05-08)"
   xmlns:inkscape="http://www.inkscape.org/namespaces/inkscape"
   xmlns:sodipodi="http://sodipodi.sourceforge.net/DTD/sodipodi-0.dtd"
   xmlns="http://www.w3.org/2000/svg"
   xmlns:svg="http://www.w3.org/2000/svg">
  <sodipodi:namedview
     id="namedview7"
     pagecolor="#ffffff"
     bordercolor="#000000"
     borderopacity="0.25"
     inkscape:showpageshadow="2"
     inkscape:pageopacity="0.0"
     inkscape:pagecheckerboard="0"
     inkscape:deskcolor="#d1d1d1"
     inkscape:zoom="2.2975"
     inkscape:cx="400"
     inkscape:cy="365.17954"
     inkscape:window-width="3840"
     inkscape:window-height="2091"
     inkscape:window-x="0"
     inkscape:window-y="0"
     inkscape:window-maximized="1"
     inkscape:current-layer="svg7" />
  <title
     id="title1">162</title>
  <defs
     id="defs1" />
  <path
     style="fill:#000000;stroke:#000000;stroke-width:0.260807"
     d="m 14.037008,15.856125 c -0.09839,-0.02385 -0.159522,-0.04405 -0.240132,-0.07932 -0.33144,-0.14502 -0.617425,-0.453707 -0.812949,-0.87748 -0.130736,-0.283354 -0.207663,-0.567934 -0.244893,-0.905957 -0.01642,-0.148977 -0.01868,-0.466485 -0.0043,-0.605468 0.06151,-0.595533 0.261387,-1.097943 0.577341,-1.451249 0.116399,-0.130158 0.258936,-0.248648 0.373174,-0.31022 l 0.04424,-0.02384 V 7.0101565 2.417725 H 12.389791 11.050106 V 2.82137 3.2250149 h 0.956315 0.956317 V 3.8798167 4.5346186 H 12.006415 11.0501 v 0.3722503 0.3722503 h 0.956315 0.956317 V 5.9384061 6.5976927 H 12.006415 11.0501 V 6.969943 7.3421935 h 0.956315 0.956317 V 7.9656007 8.5890079 H 12.006415 11.0501 v 0.4081298 0.40813 h 0.956315 0.956317 v 1.1571153 1.157116 H 7.0310436 1.0993555 V 10.562383 9.4052677 h 0.990019 0.9900188 V 8.9971377 8.5890079 H 2.0893745 1.0993555 V 7.9656007 7.3421935 h 0.990019 0.9900188 V 6.969943 6.5976927 H 2.0893745 1.0993555 V 5.9384061 5.2791192 h 0.990019 0.9900188 V 4.9068689 4.5346186 H 2.0893745 1.0993555 V 3.8798167 3.2250149 h 0.990019 0.9900188 V 2.82137 2.417725 H 1.6048971 0.1304006 V 1.2740643 0.1304035 H 7.9999985 15.869596 V 1.2740643 2.417725 h -0.505542 -0.505542 v 4.6239772 c 0,2.5431873 0.0032,4.6239778 0.0071,4.6239778 0.01773,0 0.171069,0.126926 0.24663,0.204137 0.288482,0.294775 0.496128,0.716208 0.592201,1.201911 0.04415,0.22321 0.05093,0.302102 0.05104,0.594236 1.17e-4,0.293691 -0.0072,0.381219 -0.0513,0.609953 -0.06815,0.353898 -0.213327,0.707892 -0.397165,0.968463 -0.224414,0.318088 -0.519043,0.532744 -0.831965,0.606146 -0.03593,0.0084 -0.119697,0.0154 -0.214784,0.01787 -0.130261,0.0034 -0.16695,0.0013 -0.22328,-0.01228 z M 9.8115226,8.9971377 V 8.5890079 h -2.81282 -2.81282 l -0.00556,0.289279 c -0.00306,0.1591031 -0.00556,0.3427616 -0.00557,0.4081297 l -1.42e-5,0.1188511 h 2.8183972 2.8183941 z m 0,-2.0271947 V 6.5976927 H 7.0153374 4.2191526 l -0.00536,0.041617 c -0.00294,0.022888 -0.00536,0.1904017 -0.00536,0.3722503 v 0.330634 h 2.801543 2.801543 z m 0,-2.0630741 V 4.5346186 H 7.0268309 4.2421391 l -1.47e-5,0.096427 c -8.1e-6,0.053035 -0.00251,0.2205471 -0.00557,0.3722503 l -0.00556,0.275824 h 2.7902669 2.7902644 z m 0,-2.0854989 V 2.417725 H 7.0444931 4.2774634 l -0.00524,0.091941 c -0.00288,0.050567 -0.00609,0.2322106 -0.00713,0.4036508 l -0.00189,0.3117093 2.7741596,-5.6e-6 2.7741602,-6e-6 z"
     id="path8" />
</svg>
