<?xml version="1.0" standalone="no"?>
<!DOCTYPE svg PUBLIC "-//W3C//DTD SVG 20010904//EN"
 "http://www.w3.org/TR/2001/REC-SVG-20010904/DTD/svg10.dtd">
<svg version="1.0" xmlns="http://www.w3.org/2000/svg"
 width="207.000000pt" height="220.000000pt" viewBox="0 0 207.000000 220.000000"
 preserveAspectRatio="xMidYMid meet">
<metadata>
Created by potrace 1.16, written by Peter Selinger 2001-2019
</metadata>
<g transform="translate(0.000000,220.000000) scale(0.100000,-0.100000)"
fill="#000000" stroke="none">
<path d="M391 2184 c-84 -22 -136 -49 -185 -94 -86 -79 -123 -171 -161 -394
-72 -428 -50 -814 58 -1021 85 -160 364 -368 657 -488 146 -60 351 -127 389
-127 81 0 201 52 366 157 l69 45 17 -21 c10 -12 25 -45 35 -74 27 -82 63 -147
87 -156 44 -17 96 19 97 66 1 10 -25 68 -56 129 -76 149 -78 145 78 224 149
75 186 102 204 147 88 210 -108 1084 -289 1287 -106 119 -569 280 -937 326
-123 15 -364 12 -429 -6z m534 -563 c81 -37 134 -117 135 -204 0 -90 -50 -148
-133 -155 -116 -9 -218 91 -218 213 0 129 102 198 216 146z m618 -337 c57 -40
96 -114 97 -179 0 -94 -51 -154 -137 -162 -125 -12 -246 138 -212 263 30 110
152 148 252 78z m-607 -309 c122 -36 194 -195 133 -295 -27 -43 -44 -57 -90
-70 -108 -30 -242 88 -242 215 0 80 30 126 100 151 48 17 41 17 99 -1z"/>
</g>
</svg>
