<?xml version="1.0" encoding="UTF-8" standalone="no"?>

<svg
   width="800px"
   height="800px"
   viewBox="0 0 48 48"
   version="1.1"
   id="svg2"
   sodipodi:docname="smart-home.svg"
   inkscape:version="1.4 (e7c3feb100, 2024-10-09)"
   xmlns:inkscape="http://www.inkscape.org/namespaces/inkscape"
   xmlns:sodipodi="http://sodipodi.sourceforge.net/DTD/sodipodi-0.dtd"
   xmlns="http://www.w3.org/2000/svg"
   xmlns:svg="http://www.w3.org/2000/svg">
  <sodipodi:namedview
     id="namedview2"
     pagecolor="#ffffff"
     bordercolor="#000000"
     borderopacity="0.25"
     inkscape:showpageshadow="2"
     inkscape:pageopacity="0.0"
     inkscape:pagecheckerboard="0"
     inkscape:deskcolor="#d1d1d1"
     inkscape:zoom="0.87062522"
     inkscape:cx="442.78524"
     inkscape:cy="415.21885"
     inkscape:window-width="2192"
     inkscape:window-height="1196"
     inkscape:window-x="0"
     inkscape:window-y="0"
     inkscape:window-maximized="1"
     inkscape:current-layer="svg2" />
  <defs
     id="defs1">
    <style
       id="style1">.a,.b{fill:none;stroke:#000000;stroke-linecap:round;stroke-linejoin:round;}</style>
  </defs>
  <path
     style="fill:#000000;stroke:#000000;stroke-width:0.048731"
     d=""
     id="path4" />
  <path
     style="fill:#000000;stroke:#000000;stroke-width:0.048731"
     d=""
     id="path6" />
  <path
     id="path9"
     style="fill:#000000;stroke:#000000;stroke-width:0.0876925"
     d="m 24.16957,4.2876074 c -1.346476,0 -1.788281,0.149424 -2.788359,0.942656 C 20.411533,5.9993824 6.1552036,18.126871 2.9717576,20.890731 c -1.291676,1.121429 -1.406198,1.246154 -1.733789,1.888594 -0.34492904,0.676468 -0.35074604,0.703493 -0.34804704,1.619531 0.0023,0.764059 0.03925,1.023119 0.20578204,1.441524 0.282926,0.71086 1.084394,1.551636 1.828125,1.917773 0.534231,0.263004 0.650646,0.284743 1.786289,0.334805 0.668157,0.02944 1.245439,0.08425 1.282851,0.12164 0.03743,0.03739 0.0878,3.468182 0.111914,7.624102 l 0.04383,7.55625 0.245977,0.418476 c 0.340182,0.578723 0.795311,1.010886 1.323516,1.256836 l 0.447421,0.20836 4.9800004,8.2e-4 c 4.864801,8.35e-4 4.98826,-0.0033 5.336016,-0.180703 0.51513,-0.2628 1.058529,-0.795638 1.30664,-1.281328 l 0.21586,-0.422461 0.04383,-6.09457 0.04383,-6.094688 h 4.077773 4.077657 l 0.04383,6.094688 0.04383,6.09457 0.215859,0.422461 c 0.248998,0.487431 0.791815,1.018687 1.311914,1.284023 0.356579,0.18191 0.427834,0.184037 5.423672,0.159727 4.74631,-0.02311 5.083161,-0.0349 5.393555,-0.189141 0.480631,-0.238827 1.108674,-0.906746 1.341914,-1.427109 l 0.202383,-0.451641 0.02695,-7.455351 c 0.01479,-4.100447 0.05751,-7.485921 0.09492,-7.523321 0.03742,-0.0374 0.609559,-0.09215 1.271484,-0.12164 1.0493,-0.04677 1.268456,-0.08355 1.710469,-0.286524 0.702204,-0.322455 1.489788,-1.096756 1.840898,-1.809961 0.266952,-0.542243 0.283008,-0.62952 0.283008,-1.54125 0,-0.8683 -0.02425,-1.018063 -0.238359,-1.475039 C 47.08248,22.700433 46.888974,22.350385 46.783594,22.202411 46.584084,21.922223 41.895413,17.884492 32.851055,10.204052 26.53848,4.8434344 26.424272,4.7512334 25.773984,4.4910444 25.337159,4.3162724 25.11148,4.2876074 24.16957,4.2876074 Z m 1.188282,2.030156 c 0.01105,0.0025 0.108187,0.07424 0.30164,0.217617 0.75607,0.560339 5.788477,4.7838166 5.788477,4.8580066 0,0.02077 -0.0099,0.03445 -0.02191,0.03035 -0.03399,-0.01145 -5.507274,-4.6004626 -5.853516,-4.9078116 -0.150766,-0.133835 -0.225741,-0.200634 -0.214687,-0.198164 z m -2.679141,0.231211 c 0,0.02191 -0.56228,0.500055 -1.24957,1.062539 -0.687288,0.56248 -1.081168,0.866609 -0.875274,0.67582 0.481402,-0.44608 2.124844,-1.790599 2.124844,-1.738359 z m -2.556328,2.075976 c 0.02411,0 -0.04879,0.09857 -0.16207,0.219141 -0.113275,0.12058 -0.225734,0.219258 -0.249844,0.219258 -0.02411,0 0.04879,-0.09869 0.16207,-0.219258 0.113272,-0.12058 0.225734,-0.219141 0.249844,-0.219141 z m -0.526172,0.438399 c 0.02411,0 -0.04879,0.09867 -0.16207,0.219258 -0.113275,0.12058 -0.225734,0.219257 -0.249844,0.219257 -0.02411,0 0.04891,-0.09869 0.162187,-0.219257 0.113274,-0.120583 0.225617,-0.219258 0.249727,-0.219258 z m -0.617227,0.526172 c 0.02411,0 -0.02754,0.07897 -0.114843,0.175429 -0.08729,0.09645 -0.178508,0.175313 -0.202618,0.175313 -0.02411,0 0.02766,-0.07886 0.114961,-0.175313 0.08729,-0.09645 0.17839,-0.175429 0.2025,-0.175429 z m -0.526171,0.4385146 c 0.02411,0 -0.02754,0.07886 -0.114844,0.175313 -0.08729,0.09645 -0.178507,0.175429 -0.202617,0.175429 -0.02411,0 0.02767,-0.07897 0.11496,-0.175429 0.08729,-0.09646 0.17839,-0.175313 0.202501,-0.175313 z m 3.452695,0.312305 c 9.306366,0 16.850625,7.544338 16.850625,16.850742 0,0.715848 -0.580242,1.296211 -1.296094,1.296211 -0.71585,0 -1.296211,-0.580363 -1.296211,-1.296211 0,-7.874704 -6.383706,-14.258321 -14.25832,-14.258321 -0.715866,0 -1.296211,-0.580361 -1.296211,-1.296211 0,-0.715849 0.580345,-1.29621 1.296211,-1.29621 z m -4.049883,0.21375 c 0.0045,0.0045 -0.02198,0.04014 -0.07652,0.109687 -0.06618,0.08442 -0.135189,0.153399 -0.153399,0.153399 -0.07218,0 -0.02572,-0.07201 0.120352,-0.186563 0.06954,-0.05453 0.105042,-0.08105 0.10957,-0.07652 z m 13.636172,0.833085 0.241172,0.212579 c 0.132643,0.116933 0.241172,0.225511 0.241172,0.241171 0,0.06877 -0.07106,0.01282 -0.269766,-0.212578 z m 0.526172,0.438516 0.241172,0.212578 c 0.132643,0.116933 0.241171,0.225512 0.241171,0.241172 0,0.06878 -0.07106,0.01282 -0.269765,-0.212578 z m 0.613828,0.526172 0.197344,0.166992 c 0.108519,0.09187 0.197343,0.180784 0.197343,0.197344 0,0.07018 -0.07059,0.01831 -0.227578,-0.16711 z m -10.484766,3.205547 c 0.08496,0.0013 0.178216,0.0043 0.28125,0.0086 4.774674,0.19551 8.962177,3.35136 10.513594,7.923282 0.480911,1.417219 0.744214,3.449493 0.532031,4.106484 -0.192004,0.594478 -0.906266,0.99152 -1.489687,0.828047 v -1.17e-4 c -0.26566,-0.07443 -0.563221,-0.256423 -0.689063,-0.421406 -0.225677,-0.295887 -0.271962,-0.476248 -0.315937,-1.232344 -0.07632,-1.312199 -0.326092,-2.339499 -0.835664,-3.436524 -0.742316,-1.59809 -2.086773,-3.075863 -3.618516,-3.977343 -1.304602,-0.767798 -2.587964,-1.145891 -4.202109,-1.237969 -0.668715,-0.03815 -0.732987,-0.04915 -0.976407,-0.168047 -0.297981,-0.145581 -0.444662,-0.300462 -0.596718,-0.63 -0.228025,-0.494176 -0.105564,-1.044683 0.318515,-1.432266 0.295603,-0.270163 0.484026,-0.339779 1.078711,-0.330351 z m -10.69289,0.433711 c 0.0045,0.0045 -0.02198,0.04003 -0.07652,0.10957 -0.114551,0.146063 -0.186562,0.192532 -0.186562,0.120352 0,-0.01821 0.069,-0.08733 0.153398,-0.153516 0.06954,-0.05454 0.10516,-0.08093 0.109688,-0.07641 z m -0.613829,0.526054 c 0.0045,0.0045 -0.02198,0.04015 -0.07652,0.109688 -0.06618,0.08441 -0.135306,0.153398 -0.153516,0.153398 -0.07217,0 -0.02571,-0.072 0.120352,-0.186562 0.06954,-0.05454 0.10516,-0.08105 0.109687,-0.07652 z m -0.539531,0.438516 c 0.02412,0 -0.04879,0.09869 -0.16207,0.219258 -0.113275,0.120582 -0.2257294,0.219141 -0.2498434,0.219141 -0.02411,-1e-6 0.04891,-0.09856 0.1621874,-0.219141 0.113273,-0.120581 0.225616,-0.219258 0.249726,-0.219258 z m -0.4689844,0.39457 -0.257578,0.285 c -0.141651,0.156749 -0.269884,0.285 -0.285,0.285 -0.06775,0 -0.0081,-0.07234 0.257578,-0.312422 z m -0.657656,0.599649 c 0,0.02319 -0.680791,0.62552 -1.512773,1.338515 -0.831983,0.712992 -2.005943,1.729007 -2.608828,2.257735 -0.602886,0.528731 -1.34983,1.201805 -1.659961,1.495781 -0.310123,0.293966 -0.503977,0.435938 -0.430664,0.315352 0.144854,-0.238246 6.212226,-5.519547 6.212226,-5.407383 z m 12.7313674,2.760117 c 3.579373,0 6.481055,2.901628 6.481055,6.481055 0,0.715848 -0.580325,1.296211 -1.296211,1.296211 -0.715866,0 -1.296211,-0.580363 -1.296211,-1.296211 0,-2.147725 -1.740996,-3.888633 -3.888633,-3.888633 -0.715866,0 -1.296211,-0.580363 -1.296211,-1.296211 0,-0.715854 0.580345,-1.296211 1.296211,-1.296211 z m -19.1807814,4.31332 c 0.02386,0 0.109334,0.127801 0.190078,0.283946 0.08075,0.156146 0.263542,0.392935 0.406172,0.526171 0.306345,0.286161 0.274476,0.319111 -0.05672,0.05859 -0.209572,-0.164849 -0.64671,-0.868711 -0.539531,-0.868711 z M 30.076641,42.456981 c 0.01331,0.01616 0.03381,0.09023 0.06609,0.227813 0.04417,0.188146 0.06485,0.357613 0.04594,0.376523 -0.06005,0.06005 -0.1442,-0.24171 -0.135,-0.48457 0.0035,-0.09411 0.0097,-0.135921 0.02297,-0.119766 z m -11.811563,0.213164 c 0.01454,-0.0079 0.02291,-7.93e-4 0.02156,0.02332 -0.0091,0.166114 -0.15543,0.445802 -0.16043,0.306915 -0.0026,-0.07235 0.03341,-0.190746 0.08016,-0.263086 0.02338,-0.03618 0.04417,-0.0592 0.05871,-0.06715 z m -0.491953,0.740508 c 0.03085,0.0061 0.04357,0.02015 0.03082,0.04078 -0.0449,0.07267 -0.386718,0.109345 -0.386718,0.04149 0,-0.01848 0.09745,-0.05236 0.216562,-0.07512 0.05956,-0.01139 0.108485,-0.01324 0.139336,-0.0071 z" />
</svg>
